<svg width="598" height="183" viewBox="0 0 598 183" fill="none" xmlns="http://www.w3.org/2000/svg">
<rect width="598" height="183" fill="#E5E5E5"/>
<rect width="598" height="183" fill="#008B8B"/>
<ellipse cx="67.5" cy="86" rx="4.5" ry="4" fill="#EFEFEF"/>
<path d="M215 95.5C215 97.9853 212.549 100 210 100C207.451 100 205 97.704 205 95.2188C205 92.7335 207.451 91 210 91C212.549 91 215 93.0147 215 95.5Z" fill="#EFEFEF"/>
<ellipse cx="569.5" cy="27" rx="4.5" ry="5" fill="white"/>
<ellipse cx="217" cy="166.5" rx="3" ry="4.5" fill="white"/>
<path d="M301 126.5C301 128.985 298.209 131 296 131C293.791 131 291 128.985 291 126.5C291 124.015 293.791 122 296 122C298.209 122 301 124.015 301 126.5Z" fill="#E9E9E9"/>
<ellipse cx="40.5" cy="27.5" rx="4.5" ry="3.5" fill="#F3F2F2"/>
<ellipse cx="115.5" cy="162" rx="3.5" ry="4" fill="#EFEFEF"/>
<ellipse cx="415" cy="172" rx="4" ry="6" fill="#E6E4E4"/>
<ellipse cx="557" cy="157.5" rx="4" ry="2.5" fill="#F3F3F3"/>
<circle cx="14" cy="152" r="3" fill="#EFEFEF"/>
<ellipse cx="156" cy="40" rx="2" ry="4" fill="#F1F1F1"/>
<circle cx="361" cy="74" r="4" fill="#F3F3F3"/>
<ellipse cx="469" cy="127.5" rx="5" ry="3.5" fill="#F5F5F5"/>
<ellipse cx="461" cy="48.5" rx="3" ry="4.5" fill="#F2F2F2"/>
<ellipse cx="265.5" cy="24.5" rx="3.5" ry="4.5" fill="#F3F3F3"/>
<ellipse cx="545" cy="89" rx="3" ry="2" fill="#F2F2F2"/>
</svg>
