<svg width="1440" height="100" viewBox="0 0 1440 100" fill="none" xmlns="http://www.w3.org/2000/svg">
<rect width="1440" height="100" fill="#E5E5E5"/>
<g clip-path="url(#clip0)">
<rect width="1440" height="100" fill="#008B8B"/>
<path d="M250 0H0V101H250V0Z" fill="#E5E5E5"/>
<path d="M250 0H0V101H250V0Z" fill="#008B8B"/>
<path d="M28.219 49.6721C29.258 49.6721 30.1003 48.6837 30.1003 47.4645C30.1003 46.2452 29.258 45.2568 28.219 45.2568C27.18 45.2568 26.3378 46.2452 26.3378 47.4645C26.3378 48.6837 27.18 49.6721 28.219 49.6721Z" fill="#EFEFEF"/>
<path d="M89.8829 52.7077C89.8829 54.0793 88.8583 55.1913 87.7926 55.1913C86.727 55.1913 85.7023 53.9241 85.7023 52.5525C85.7023 51.1808 86.727 50.2241 87.7926 50.2241C88.8583 50.2241 89.8829 51.336 89.8829 52.7077Z" fill="#EFEFEF"/>
<path d="M238.085 17.6612C239.124 17.6612 239.967 16.4257 239.967 14.9017C239.967 13.3776 239.124 12.1421 238.085 12.1421C237.046 12.1421 236.204 13.3776 236.204 14.9017C236.204 16.4257 237.046 17.6612 238.085 17.6612Z" fill="white"/>
<path d="M90.7191 94.3771C91.4118 94.3771 91.9733 93.2651 91.9733 91.8935C91.9733 90.5218 91.4118 89.4099 90.7191 89.4099C90.0264 89.4099 89.4649 90.5218 89.4649 91.8935C89.4649 93.2651 90.0264 94.3771 90.7191 94.3771Z" fill="white"/>
<path d="M125.836 69.817C125.836 71.1885 124.669 72.3006 123.746 72.3006C122.822 72.3006 121.656 71.1885 121.656 69.817C121.656 68.4454 122.822 67.3333 123.746 67.3333C124.669 67.3333 125.836 68.4454 125.836 69.817Z" fill="#E9E9E9"/>
<path d="M16.9314 17.1093C17.9704 17.1093 18.8127 16.2444 18.8127 15.1776C18.8127 14.1108 17.9704 13.2459 16.9314 13.2459C15.8924 13.2459 15.0502 14.1108 15.0502 15.1776C15.0502 16.2444 15.8924 17.1093 16.9314 17.1093Z" fill="#F3F2F2"/>
<path d="M48.286 91.6175C49.0941 91.6175 49.7492 90.6291 49.7492 89.4098C49.7492 88.1906 49.0941 87.2022 48.286 87.2022C47.4779 87.2022 46.8228 88.1906 46.8228 89.4098C46.8228 90.6291 47.4779 91.6175 48.286 91.6175Z" fill="#EFEFEF"/>
<path d="M173.495 98.2404C174.419 98.2404 175.167 96.7578 175.167 94.929C175.167 93.1001 174.419 91.6175 173.495 91.6175C172.571 91.6175 171.823 93.1001 171.823 94.929C171.823 96.7578 172.571 98.2404 173.495 98.2404Z" fill="#E6E4E4"/>
<path d="M232.86 88.306C233.783 88.306 234.532 87.6883 234.532 86.9262C234.532 86.1642 233.783 85.5464 232.86 85.5464C231.936 85.5464 231.187 86.1642 231.187 86.9262C231.187 87.6883 231.936 88.306 232.86 88.306Z" fill="#F3F3F3"/>
<path d="M5.85287 85.5465C6.54554 85.5465 7.10706 84.8052 7.10706 83.8907C7.10706 82.9763 6.54554 82.235 5.85287 82.235C5.16021 82.235 4.59869 82.9763 4.59869 83.8907C4.59869 84.8052 5.16021 85.5465 5.85287 85.5465Z" fill="#EFEFEF"/>
<path d="M65.2174 24.2841C65.6792 24.2841 66.0535 23.2957 66.0535 22.0765C66.0535 20.8572 65.6792 19.8688 65.2174 19.8688C64.7556 19.8688 64.3813 20.8572 64.3813 22.0765C64.3813 23.2957 64.7556 24.2841 65.2174 24.2841Z" fill="#F1F1F1"/>
<path d="M150.92 43.0492C151.843 43.0492 152.592 42.0608 152.592 40.8415C152.592 39.6223 151.843 38.6339 150.92 38.6339C149.996 38.6339 149.247 39.6223 149.247 40.8415C149.247 42.0608 149.996 43.0492 150.92 43.0492Z" fill="#F3F3F3"/>
<path d="M196.07 72.3006C197.225 72.3006 198.161 71.4357 198.161 70.3689C198.161 69.302 197.225 68.4372 196.07 68.4372C194.916 68.4372 193.98 69.302 193.98 70.3689C193.98 71.4357 194.916 72.3006 196.07 72.3006Z" fill="#F5F5F5"/>
<path d="M192.726 29.2514C193.418 29.2514 193.98 28.1394 193.98 26.7678C193.98 25.3961 193.418 24.2841 192.726 24.2841C192.033 24.2841 191.472 25.3961 191.472 26.7678C191.472 28.1394 192.033 29.2514 192.726 29.2514Z" fill="#F2F2F2"/>
<path d="M110.995 16.0055C111.803 16.0055 112.458 14.8935 112.458 13.5218C112.458 12.1502 111.803 11.0382 110.995 11.0382C110.187 11.0382 109.532 12.1502 109.532 13.5218C109.532 14.8935 110.187 16.0055 110.995 16.0055Z" fill="#F3F3F3"/>
<path d="M227.843 50.224C228.535 50.224 229.097 49.7298 229.097 49.1202C229.097 48.5106 228.535 48.0164 227.843 48.0164C227.15 48.0164 226.589 48.5106 226.589 49.1202C226.589 49.7298 227.15 50.224 227.843 50.224Z" fill="#F2F2F2"/>
<path d="M1440 0H1190V100H1440V0Z" fill="#E5E5E5"/>
<path d="M1440 0H1190V100H1440V0Z" fill="#008B8B"/>
<path d="M1218.22 49.1803C1219.26 49.1803 1220.1 48.2017 1220.1 46.9945C1220.1 45.7874 1219.26 44.8087 1218.22 44.8087C1217.18 44.8087 1216.34 45.7874 1216.34 46.9945C1216.34 48.2017 1217.18 49.1803 1218.22 49.1803Z" fill="#EFEFEF"/>
<path d="M1279.88 52.1858C1279.88 53.5439 1278.86 54.6448 1277.79 54.6448C1276.73 54.6448 1275.7 53.3902 1275.7 52.0321C1275.7 50.674 1276.73 49.7268 1277.79 49.7268C1278.86 49.7268 1279.88 50.8277 1279.88 52.1858Z" fill="#EFEFEF"/>
<path d="M1428.09 17.4863C1429.12 17.4863 1429.97 16.2631 1429.97 14.7541C1429.97 13.2451 1429.12 12.0219 1428.09 12.0219C1427.05 12.0219 1426.2 13.2451 1426.2 14.7541C1426.2 16.2631 1427.05 17.4863 1428.09 17.4863Z" fill="white"/>
<path d="M1280.72 93.4426C1281.41 93.4426 1281.97 92.3417 1281.97 90.9836C1281.97 89.6255 1281.41 88.5246 1280.72 88.5246C1280.03 88.5246 1279.46 89.6255 1279.46 90.9836C1279.46 92.3417 1280.03 93.4426 1280.72 93.4426Z" fill="white"/>
<path d="M1315.84 69.1257C1315.84 70.4836 1314.67 71.5847 1313.75 71.5847C1312.82 71.5847 1311.66 70.4836 1311.66 69.1257C1311.66 67.7678 1312.82 66.6667 1313.75 66.6667C1314.67 66.6667 1315.84 67.7678 1315.84 69.1257Z" fill="#E9E9E9"/>
<path d="M1206.93 16.9399C1207.97 16.9399 1208.81 16.0836 1208.81 15.0273C1208.81 13.971 1207.97 13.1147 1206.93 13.1147C1205.89 13.1147 1205.05 13.971 1205.05 15.0273C1205.05 16.0836 1205.89 16.9399 1206.93 16.9399Z" fill="#F3F2F2"/>
<path d="M1238.29 90.7104C1239.09 90.7104 1239.75 89.7318 1239.75 88.5246C1239.75 87.3174 1239.09 86.3388 1238.29 86.3388C1237.48 86.3388 1236.82 87.3174 1236.82 88.5246C1236.82 89.7318 1237.48 90.7104 1238.29 90.7104Z" fill="#EFEFEF"/>
<path d="M1363.49 97.2678C1364.42 97.2678 1365.17 95.7998 1365.17 93.9891C1365.17 92.1783 1364.42 90.7104 1363.49 90.7104C1362.57 90.7104 1361.82 92.1783 1361.82 93.9891C1361.82 95.7998 1362.57 97.2678 1363.49 97.2678Z" fill="#E6E4E4"/>
<path d="M1422.86 87.4317C1423.78 87.4317 1424.53 86.8201 1424.53 86.0656C1424.53 85.3111 1423.78 84.6995 1422.86 84.6995C1421.94 84.6995 1421.19 85.3111 1421.19 86.0656C1421.19 86.8201 1421.94 87.4317 1422.86 87.4317Z" fill="#F3F3F3"/>
<path d="M1195.85 84.6995C1196.55 84.6995 1197.11 83.9655 1197.11 83.0601C1197.11 82.1547 1196.55 81.4208 1195.85 81.4208C1195.16 81.4208 1194.6 82.1547 1194.6 83.0601C1194.6 83.9655 1195.16 84.6995 1195.85 84.6995Z" fill="#EFEFEF"/>
<path d="M1255.22 24.0437C1255.68 24.0437 1256.05 23.0651 1256.05 21.8579C1256.05 20.6507 1255.68 19.6721 1255.22 19.6721C1254.76 19.6721 1254.38 20.6507 1254.38 21.8579C1254.38 23.0651 1254.76 24.0437 1255.22 24.0437Z" fill="#F1F1F1"/>
<path d="M1340.92 42.623C1341.84 42.623 1342.59 41.6443 1342.59 40.4372C1342.59 39.23 1341.84 38.2514 1340.92 38.2514C1340 38.2514 1339.25 39.23 1339.25 40.4372C1339.25 41.6443 1340 42.623 1340.92 42.623Z" fill="#F3F3F3"/>
<path d="M1386.07 71.5847C1387.22 71.5847 1388.16 70.7284 1388.16 69.6721C1388.16 68.6158 1387.22 67.7596 1386.07 67.7596C1384.92 67.7596 1383.98 68.6158 1383.98 69.6721C1383.98 70.7284 1384.92 71.5847 1386.07 71.5847Z" fill="#F5F5F5"/>
<path d="M1382.73 28.9617C1383.42 28.9617 1383.98 27.8608 1383.98 26.5027C1383.98 25.1446 1383.42 24.0437 1382.73 24.0437C1382.03 24.0437 1381.47 25.1446 1381.47 26.5027C1381.47 27.8608 1382.03 28.9617 1382.73 28.9617Z" fill="#F2F2F2"/>
<path d="M1301 15.847C1301.8 15.847 1302.46 14.746 1302.46 13.388C1302.46 12.0299 1301.8 10.929 1301 10.929C1300.19 10.929 1299.53 12.0299 1299.53 13.388C1299.53 14.746 1300.19 15.847 1301 15.847Z" fill="#F3F3F3"/>
<path d="M1417.84 49.7268C1418.54 49.7268 1419.1 49.2375 1419.1 48.6339C1419.1 48.0303 1418.54 47.541 1417.84 47.541C1417.15 47.541 1416.59 48.0303 1416.59 48.6339C1416.59 49.2375 1417.15 49.7268 1417.84 49.7268Z" fill="#F2F2F2"/>
</g>
<defs>
<clipPath id="clip0">
<rect width="1440" height="100" fill="white"/>
</clipPath>
</defs>
</svg>
